<!-- Generated by IcoMoon.io -->
<svg version="1.1" xmlns="http://www.w3.org/2000/svg" width="512" height="512" viewBox="0 0 512 512">
<title></title>
<g id="icomoon-ignore">
</g>
<path d="M368 214.4h-6.399v-76.8c0-42.348-34.452-76.8-76.8-76.8h-51.201c-42.348 0-76.8 34.452-76.8 76.8v76.8h-6.399c-10.56 0-19.2 8.64-19.2 19.2v192c0 10.56 8.64 19.2 19.2 19.2h217.599c10.56 0 19.2-8.64 19.2-19.2v-192c0-10.56-8.64-19.2-19.2-19.2zM208 137.601c0-14.115 11.484-25.6 25.6-25.6h51.201c14.115 0 25.599 11.484 25.599 25.6v76.8h-102.399v-76.8z"></path>
</svg>
