<!-- Generated by IcoMoon.io -->
<svg version="1.1" xmlns="http://www.w3.org/2000/svg" width="512" height="512" viewBox="0 0 512 512">
<title></title>
<g id="icomoon-ignore">
</g>
<path d="M352.936 184.284c6.771-4.811 13.264-10.166 19.216-16.117 12.477-12.477 20.823-27.828 23.5-43.225 2.935-16.879-1.372-32.549-11.815-42.992-8.33-8.329-19.613-12.732-32.632-12.732-18.538 0-38.071 8.898-53.586 24.415-24.83 24.83-39.305 59.106-47.092 83.565-5.768-24.579-17.259-57.764-39.601-80.105-11.988-11.987-27.31-18.142-41.777-18.142-11.823 0-23.076 4.11-31.474 12.507-18.671 18.672-16.148 51.467 5.635 73.25 7.766 7.766 16.845 14.217 26.416 19.578h-81.064v95.622h23.906v167.34h286.868v-167.34h23.906v-95.622h-70.404zM316.633 112.647c10.356-10.356 23.279-16.537 34.569-16.537 3.996 0 9.602 0.841 13.615 4.855 9.723 9.722 4.262 32.238-11.684 48.184-16.415 16.415-38.496 27.704-57.684 35.134h-18.928c6.936-21.496 19.445-50.97 40.11-71.635zM152.135 124.851c-0.263-3.406-0.019-9.804 4.556-14.379 3.826-3.826 8.886-4.63 12.456-4.63v0c7.941 0 16.236 3.742 22.76 10.264 12.652 12.652 23.071 32.785 30.132 58.224 0.191 0.688 0.376 1.371 0.558 2.049-0.678-0.181-1.362-0.368-2.049-0.558-25.438-7.061-45.571-17.481-58.223-30.133-5.912-5.911-9.625-13.506-10.19-20.837zM232.094 423.34h-95.622v-155.386h95.622v155.386zM232.094 256h-119.528v-47.812h119.528v47.812zM375.528 423.34h-95.622v-155.386h95.622v155.386zM399.434 256h-119.528v-47.812h119.528v47.812z"></path>
</svg>
